<svg width="84" height="148" viewBox="0 0 84 148" fill="none" xmlns="http://www.w3.org/2000/svg" xmlns:xlink="http://www.w3.org/1999/xlink">
<path d="M66.929,145.071C70.834,148.976 77.166,148.976 81.071,145.071C84.976,141.166 84.976,134.834 81.071,130.929L66.929,145.071ZM10,74L2.929,66.929C-0.976,70.834 -0.976,77.166 2.929,81.071L10,74ZM81.071,17.071C84.976,13.166 84.976,6.834 81.071,2.929C77.166,-0.976 70.834,-0.976 66.929,2.929L81.071,17.071ZM81.071,130.929L17.071,66.929L2.929,81.071L66.929,145.071L81.071,130.929ZM17.071,81.071L81.071,17.071L66.929,2.929L2.929,66.929L17.071,81.071Z" fill="#FFF9F9"/>
</svg>
